# xmcd
# Copyright (C) 1995-1998 Ti Kan
#
# Track frame offsets:
#       151
#       27754
#       59514
#       83000
#       108181
#       147754
#       185823
#       209204
#       235762
#       259742
#       288823
#       315274
#
# Disc length: 4615 seconds
#
# Revision: 0
# Processed by: cddbd v1.5.2PL0 Copyright (c) Steve Scherf et al.
# Submitted via: CD-Transfer v1.0
#
DISCID=a512050c
DTITLE=Club - 
DYEAR=1900
DGENRE=
TTITLE0=Deep Forest Sweet Lullaby (Remix)
TTITLE1=Stansfield All Around The World (Long Version)
TTITLE2=Pm Dawn Set Adrift On Memory Bliss (Extended Mix9
TTITLE3=Michael, George Mmichael Too Funky (Ext. Version)
TTITLE4=Milli Vanilli Girl, You Know It's True (Super Club Mix)
TTITLE5=Khan, Chaka I'm Every Woman (Extended Remix)
TTITLE6=King Kurlee Smoke On The Water (Club Mix)
TTITLE7=Cut 'n' Move Give It Up (Ext. Version)
TTITLE8=Black Box Everybody, Everybody (Le Freak Mix)
TTITLE9=Hurley, Steve ''silk'' Jack Your Body (Original Mix)
TTITLE10=L.a. Mix Check This Out (Fierce Vocal Mix)
TTITLE11=Ice Mc Scream (Zombie Remix)
EXTD=
EXTT0=
EXTT1=
EXTT2=
EXTT3=
EXTT4=
EXTT5=
EXTT6=
EXTT7=
EXTT8=
EXTT9=
EXTT10=
EXTT11=
PLAYORDER=
